HIERARCHY
ROOT hips
{
  OFFSET 0 10.6860622 2.3727825e-15
  CHANNELS 6 Xposition Yposition Zposition Yrotation Xrotation Zrotation
  JOINT leftUpperLeg
  {
    OFFSET 0.6642549969 -0.9402397400000004 0
    CHANNELS 3 Yrotation Xrotation Zrotation
    JOINT leftLowerLeg
    {
      OFFSET 0 -3.997221335632195 0
      CHANNELS 3 Yrotation Xrotation Zrotation
      JOINT leftFoot
      {
        OFFSET -0.13777839790000004 -4.6145792000000005 -0.22186036399999998
        CHANNELS 3 Yrotation Xrotation Zrotation
        JOINT leftToes
        {
          OFFSET -0.03777410834999995 -0.9130806927000008 0.85230013
          CHANNELS 3 Yrotation Xrotation Zrotation
          End Site
          {
            OFFSET -0.03777410834999995 -0.9130806927000008 0.85230013
          }
        }
      }
    }
  }
  JOINT rightUpperLeg
  {
    OFFSET -0.6642778626 -0.9402397400000004 0
    CHANNELS 3 Yrotation Xrotation Zrotation
    JOINT rightLowerLeg
    {
      OFFSET 0 -3.997221452859387 0
      CHANNELS 3 Yrotation Xrotation Zrotation
      JOINT rightFoot
      {
        OFFSET 0.1377926176 -4.6145792000000005 -0.22185782299999995
        CHANNELS 3 Yrotation Xrotation Zrotation
        JOINT rightToes
        {
          OFFSET 0.037780746850000047 -0.9130806927000008 0.85230167
          CHANNELS 3 Yrotation Xrotation Zrotation
          End Site
          {
            OFFSET 0.037780746850000047 -0.9130806927000008 0.85230167
          }
        }
      }
    }
  }
  JOINT spine
  {
    OFFSET 0 0.13988381660000015 0
    CHANNELS 3 Yrotation Xrotation Zrotation
    JOINT chest
    {
      OFFSET 0 0.6191039003973773 0
      CHANNELS 3 Yrotation Xrotation Zrotation
      JOINT upperChest
      {
        OFFSET 0 0.9855186130586943 0
        CHANNELS 3 Yrotation Xrotation Zrotation
        JOINT leftShoulder
        {
          OFFSET 0.1807663869 1.5087829790000005 0
          CHANNELS 3 Yrotation Xrotation Zrotation
          JOINT leftUpperArm
          {
            OFFSET 0.5985063006419806 0 0
            CHANNELS 3 Yrotation Xrotation Zrotation
            JOINT leftLowerArm
            {
              OFFSET 2.2993332369501065 0 0
              CHANNELS 3 Yrotation Xrotation Zrotation
              JOINT leftHand
              {
                OFFSET 2.395047042602395 0 0
                CHANNELS 3 Yrotation Xrotation Zrotation
                JOINT leftIndexProximal
                {
                  OFFSET 0.5766295810000004 0.04556643899499946 0.17265095988184
                  CHANNELS 3 Yrotation Xrotation Zrotation
                  JOINT leftIndexIntermediate
                  {
                    OFFSET 0.2957229000000008 -0.019352197700001517 -0.007932640616999987
                    CHANNELS 3 Yrotation Xrotation Zrotation
                    JOINT leftIndexDistal
                    {
                      OFFSET 0.19008243099999922 -0.012484908149998475 -0.002786250786000012
                      CHANNELS 3 Yrotation Xrotation Zrotation
                      End Site
                      {
                        OFFSET 0.19008243099999922 -0.012484908149998475 -0.002786250786000012
                      }
                    }
                  }
                }
                JOINT leftMiddleProximal
                {
                  OFFSET 0.5834975091000001 0.0524350405149987 0.02204081888183999
                  CHANNELS 3 Yrotation Xrotation Zrotation
                  JOINT leftMiddleIntermediate
                  {
                    OFFSET 0.33880573540000003 -0.019871473270000717 -0.00000971183179999946
                    CHANNELS 3 Yrotation Xrotation Zrotation
                    JOINT leftMiddleDistal
                    {
                      OFFSET 0.20676022730000088 -0.012221336379999448 0.0001471936708000235
                      CHANNELS 3 Yrotation Xrotation Zrotation
                      End Site
                      {
                        OFFSET 0.20676022730000088 -0.012221336379999448 0.0001471936708000235
                      }
                    }
                  }
                }
                JOINT leftLittleProximal
                {
                  OFFSET 0.5344154683999995 -0.012880921405001189 -0.24414037221816004
                  CHANNELS 3 Yrotation Xrotation Zrotation
                  JOINT leftLittleIntermediate
                  {
                    OFFSET 0.21758961730000093 -0.011650919939999227 0.011893592810000034
                    CHANNELS 3 Yrotation Xrotation Zrotation
                    JOINT leftLittleDistal
                    {
                      OFFSET 0.1475273964999999 -0.008152365682999818 0.006001092492999946
                      CHANNELS 3 Yrotation Xrotation Zrotation
                      End Site
                      {
                        OFFSET 0.1475273964999999 -0.008152365682999818 0.006001092492999946
                      }
                    }
                  }
                }
                JOINT leftRingProximal
                {
                  OFFSET 0.5799399463000003 0.026911854694997794 -0.12150566991816003
                  CHANNELS 3 Yrotation Xrotation Zrotation
                  JOINT leftRingIntermediate
                  {
                    OFFSET 0.26167887460000006 -0.013480186499999602 0.010996293000000053
                    CHANNELS 3 Yrotation Xrotation Zrotation
                    JOINT leftRingDistal
                    {
                      OFFSET 0.17667108799999987 -0.008990287899999228 0.0055541023999999065
                      CHANNELS 3 Yrotation Xrotation Zrotation
                      End Site
                      {
                        OFFSET 0.17667108799999987 -0.008990287899999228 0.0055541023999999065
                      }
                    }
                  }
                }
                JOINT leftThumbProximal
                {
                  OFFSET 0.11018806699999972 -0.09448718900500053 0.17047963138184
                  CHANNELS 3 Yrotation Xrotation Zrotation
                  JOINT leftThumbIntermediate
                  {
                    OFFSET 0.31062601459999983 -0.08126270900000132 0.15443142000000007
                    CHANNELS 3 Yrotation Xrotation Zrotation
                    JOINT leftThumbDistal
                    {
                      OFFSET 0.21627175790000086 -0.08833193599999878 0.018771167799999988
                      CHANNELS 3 Yrotation Xrotation Zrotation
                      End Site
                      {
                        OFFSET 0.21627175790000086 -0.08833193599999878 0.018771167799999988
                      }
                    }
                  }
                }
              }
            }
          }
        }
        JOINT neck
        {
          OFFSET 0 1.5463305265074576 0
          CHANNELS 3 Yrotation Xrotation Zrotation
          JOINT head
          {
            OFFSET 0 0.8456443600000344 0
            CHANNELS 3 Yrotation Xrotation Zrotation
            JOINT leftEye
            {
              OFFSET 0.30408573140000006 0.5104519199999995 0.1276382305
              CHANNELS 3 Yrotation Xrotation Zrotation
              End Site
              {
                OFFSET 0.30408573140000006 0.5104519199999995 0.1276382305
              }
            }
            JOINT rightEye
            {
              OFFSET -0.30409491089999996 0.5104519199999995 0.1276379445
              CHANNELS 3 Yrotation Xrotation Zrotation
              End Site
              {
                OFFSET -0.30409491089999996 0.5104519199999995 0.1276379445
              }
            }
            JOINT jaw
            {
              OFFSET -3.155239131000001e-7 -0.11984121820000082 0.60178107
              CHANNELS 3 Yrotation Xrotation Zrotation
              End Site
              {
                OFFSET -3.155239131000001e-7 -0.11984121820000082 0.60178107
              }
            }
          }
        }
        JOINT rightShoulder
        {
          OFFSET -0.1807303465 1.5087829790000005 0
          CHANNELS 3 Yrotation Xrotation Zrotation
          JOINT rightUpperArm
          {
            OFFSET -0.5985063796536958 0 0
            CHANNELS 3 Yrotation Xrotation Zrotation
            JOINT rightLowerArm
            {
              OFFSET -2.2993322059002854 0 0
              CHANNELS 3 Yrotation Xrotation Zrotation
              JOINT rightHand
              {
                OFFSET -2.395045314457259 0 0
                CHANNELS 3 Yrotation Xrotation Zrotation
                JOINT rightIndexProximal
                {
                  OFFSET -0.5764487688300002 0.0441371204405987 0.17361932004999997
                  CHANNELS 3 Yrotation Xrotation Zrotation
                  JOINT rightIndexIntermediate
                  {
                    OFFSET -0.29573011380000047 -0.01934826376999843 -0.007698921482999974
                    CHANNELS 3 Yrotation Xrotation Zrotation
                    JOINT rightIndexDistal
                    {
                      OFFSET -0.19008373999999884 -0.012503266380000655 -0.0026365778999999897
                      CHANNELS 3 Yrotation Xrotation Zrotation
                      End Site
                      {
                        OFFSET -0.19008373999999884 -0.012503266380000655 -0.0026365778999999897
                      }
                    }
                  }
                }
                JOINT rightMiddleProximal
                {
                  OFFSET -0.5834852037300005 0.05211639405060153 0.02307162440000001
                  CHANNELS 3 Yrotation Xrotation Zrotation
                  JOINT rightMiddleIntermediate
                  {
                    OFFSET -0.33880114510000003 -0.019952774050000954 0.0002455003561999819
                    CHANNELS 3 Yrotation Xrotation Zrotation
                    JOINT rightMiddleDistal
                    {
                      OFFSET -0.20675694929999955 -0.012273788999999091 0.00030209124000002766
                      CHANNELS 3 Yrotation Xrotation Zrotation
                      End Site
                      {
                        OFFSET -0.20675694929999955 -0.012273788999999091 0.00030209124000002766
                      }
                    }
                  }
                }
                JOINT rightLittleProximal
                {
                  OFFSET -0.5346811737299992 -0.011214256288399227 -0.24363941305000003
                  CHANNELS 3 Yrotation Xrotation Zrotation
                  JOINT rightLittleIntermediate
                  {
                    OFFSET -0.21757715980000092 -0.011771559690000988 0.01201554387
                    CHANNELS 3 Yrotation Xrotation Zrotation
                    JOINT rightLittleDistal
                    {
                      OFFSET -0.1475201849000004 -0.00822055339600003 0.006082065407000015
                      CHANNELS 3 Yrotation Xrotation Zrotation
                      End Site
                      {
                        OFFSET -0.1475201849000004 -0.00822055339600003 0.006082065407000015
                      }
                    }
                  }
                }
                JOINT rightRingProximal
                {
                  OFFSET -0.5800810755299999 0.027657985680600072 -0.12066365025000003
                  CHANNELS 3 Yrotation Xrotation Zrotation
                  JOINT rightRingIntermediate
                  {
                    OFFSET -0.26166445029999974 -0.013623118409999302 0.011164098990000045
                    CHANNELS 3 Yrotation Xrotation Zrotation
                    JOINT rightRingDistal
                    {
                      OFFSET -0.17666387530000027 -0.009072900100000503 0.005668185599999959
                      CHANNELS 3 Yrotation Xrotation Zrotation
                      End Site
                      {
                        OFFSET -0.17666387530000027 -0.009072900100000503 0.005668185599999959
                      }
                    }
                  }
                }
                JOINT rightThumbProximal
                {
                  OFFSET -0.10997596379000074 -0.09577489355940072 0.16989765924999997
                  CHANNELS 3 Yrotation Xrotation Zrotation
                  JOINT rightThumbIntermediate
                  {
                    OFFSET -0.31036620999999986 -0.08229339117999834 0.15440884469999996
                    CHANNELS 3 Yrotation Xrotation Zrotation
                    JOINT rightThumbDistal
                    {
                      OFFSET -0.21631306399999906 -0.08825326400000111 0.018656797720000014
                      CHANNELS 3 Yrotation Xrotation Zrotation
                      End Site
                      {
                        OFFSET -0.21631306399999906 -0.08825326400000111 0.018656797720000014
                      }
                    }
                  }
                }
              }
            }
          }
        }
      }
    }
  }
}
MOTION
Frames: 7
Frame Time: 0.03333333333333333
0 11.682712981546562 0 0 0 0 0 0 -5.826343164929014 -0.3712483961610101 -3.6333298826370974 5.838118207697276 0 0 0 0 0 0 0 0 5.826343164929014 0.3712483961610101 -3.6333298826370974 -5.838118207697276 0 0 0 0 0 0 0 -4.610651315171937 0 0 3.0831277533083026 0 0 0 0 0 1.5275236235667615 0 0 0 0 0 0 0 0 0 0 0 0 0 0 0 0 0 0 0 0 0 0 0 0 0 0 0 0 0 0 0 0 0 0 0 0 0 0 0 0 0 0 0 0 0 0 0 0 0 0 0 0 0 0 0 0 1.5275236235667615 0 0 0 0 0 0 0 0 0 0 0 0 0 0 1.5275236235667615 0 0 0 0 0 0 0 0 0 0 0 0 0 0 0 0 0 0 0 0 0 0 0 0 0 0 0 0 0 0 0 0 0 0 0 0 0 0 0 0 0 0 0 0 0 0 0 0 0 0 0 0 0 0 0
-3.4722208738211013 -8.928445727745556 0.4087321744415825 173.9938352290957 0 0 115.23011070277819 -59.56251047284804 -98.01397814324231 9.114467389591859 48.338969111814485 -20.282741741939862 -13.449778874788517 53.557411284842196 35.48338569654869 0 0 0 -178.94752841813175 -76.7844023225717 179.22290422099556 -5.662978385675005 44.26219570077833 -5.776469022356164 1.45134960283299 23.753030752688872 -14.079865167966183 0 0 0 -28.536144528576976 -3.1243050396934877 4.141324657838755 -0.7639814612424648 2.9092330570262206 0.40679014292221605 0 0 0 -21.075355839196064 -6.274937876846114 -48.4592319894935 -20.476832060771642 -0.9317952027069457 -30.26958187628208 -60.86135681370163 -11.744612910960816 -10.907388929093155 0 0 -7.00032480930298 0 0 0 0 0 0 0 0 0 0 0 0 0 0 0 0 0 0 0 0 0 0 0 0 0 0 0 0 0 0 0 0 0 0 0 0 0 0 0 0 0 0 0 0 0 0 -11.472877448760228 0 -29.276062882944434 -4.889926143569316 17.661255645422298 0 0 0 0 0 0 0 0 0 16.15104420747745 -2.2509126310992946 14.099903837797768 21.44155010964617 -1.5428063212020087 4.637596160431134 46.258731689490475 -7.39765980931321 16.414129624733764 38.08439118993846 -13.42172453236411 9.736704056133968 0 0 0 0 0 0 0 0 0 0 0 0 0 0 0 0 0 0 0 0 0 0 0 0 0 0 0 0 0 0 0 0 0 0 0 0 0 0 0 0 0 0 0 0 0
-3.4722208738211013 -8.928445727745556 0.4087321744415825 173.9938352290957 0 0 115.23011070277819 -59.56251047284804 -98.01397814324231 9.114470285457124 48.338979387066274 -20.2827423181492 -13.449781670527303 53.557411284842196 35.483381687231045 0 0 0 -178.94752841813175 -76.7844023225717 179.22290422099556 -5.662978385675005 44.26219570077833 -5.776469022356164 1.45134960283299 23.753030752688872 -14.079865167966183 0 0 0 -28.536144528576976 -3.1243050396934877 4.141324657838755 -0.7639814612424648 2.9092330570262206 0.40679014292221605 0 0 0 -21.075355839196064 -6.274937876846114 -48.4592319894935 -20.476832060771642 -0.9317952027069457 -30.26958187628208 -60.86135511525035 -11.744613782990745 -10.907391497921479 0 0 -7.00032480930298 0 0 0 0 0 0 0 0 0 0 0 0 0 0 0 0 0 0 0 0 0 0 0 0 0 0 0 0 0 0 0 0 0 0 0 0 0 0 0 0 0 0 0 0 0 0.11070967608871267 -11.403925799440433 -0.015324030194263087 -29.276062882944434 -4.889926143569316 17.661255645422298 0 0 0 0 0 0 0 0 0 16.151045848897255 -2.2509126310992946 14.099905495179609 21.44155010964617 -1.5428063212020087 4.637596160431134 46.258731689490475 -7.39765980931321 16.414129624733764 37.849709077084846 -13.728113771206207 9.71215249402297 0 0 0 0 0 0 0 0 0 0 0 0 0 0 0 0 0 0 0 0 0 0 0 0 0 0 0 0 0 0 0 0 0 0 0 0 0 0 0 0 0 0 0 0 0
-3.4722208738211013 -8.928445727745556 0.4087321744415825 173.9938352290957 0 0 115.23011070277819 -59.56251047284804 -98.01397814324231 9.114467389591859 48.338969111814485 -20.282741741939862 -13.449778874788517 53.557411284842196 35.48338569654869 0 0 0 -178.94752841813175 -76.7844023225717 179.22290422099556 -5.662979449405225 44.262205238106134 -5.7764695023112225 1.45134960283299 23.753030752688872 -14.079865167966183 0 0 0 -28.536144528576976 -3.1243050396934877 4.141324657838755 -0.7639814612424648 2.9092330570262206 0.40679014292221605 0 0 0 -21.075355839196064 -6.274937876846114 -48.4592319894935 -20.476832060771642 -0.9317952027069457 -30.26958187628208 -60.86135681370163 -11.744612910960816 -10.907390641645376 0 0 -7.00032480930298 0 0 0 0 0 0 0 0 0 0 0 0 0 0 0 0 0 0 0 0 0 0 0 0 0 0 0 0 0 0 0 0 0 0 0 0 0 0 0 0 0 0 0 0 0 0.22138717281104806 -11.334936896441743 -0.030509449283619428 -29.27606754886707 -4.889925286676838 17.66125727843118 0 0 0 0 0 0 0 0 0 16.15104420747745 -2.2509136991404417 14.099905495179609 21.44155010964617 -1.5428063212020087 4.637596160431134 46.25873655852583 -7.3976606702529555 16.414131276436873 37.61457031397613 -14.034969796859055 9.68883114100601 0 0 0 0 0 0 0 0 0 0 0 0 0 0 0 0 0 0 0 0 0 0 0 0 0 0 0 0 0 0 0 0 0 0 0 0 0 0 0 0 0 0 0 0 0
-3.4722208738211013 -8.928445727745556 0.4087321744415825 173.9938352290957 0 0 115.23011070277819 -59.56251047284804 -98.01397814324231 9.11447046520063 48.338979387066274 -20.282742894358645 -13.449787201348684 53.55741703399543 35.483381015105834 0 0 0 -178.94752841813175 -76.7844023225717 179.22290422099556 -5.662979449405225 44.262200469442035 -5.776469022356164 1.45134960283299 23.753030752688872 -14.079865167966183 0 0 0 -28.536144528576976 -3.1243050396934877 4.141324657838755 -0.7639814612424648 2.9092330570262206 0.40679014292221605 0 0 0 -21.07535904505588 -6.2749361590070105 -48.45924168935331 -20.476832060771642 -0.9317952027069457 -30.26958187628208 -60.86135511525035 -11.744613782990745 -10.907391497921479 0 0 -7.00032480930298 0 0 0 0 0 0 0 0 0 0 0 0 0 0 0 0 0 0 0 0 0 0 0 0 0 0 0 0 0 0 0 0 0 0 0 0 0 0 0 0 0 0 0 0 0 0.3320329541202084 -11.265908925732136 -0.045557225448459 -29.27606754886707 -4.8899248582306 17.661255645422298 0 0 0 0 0 0 0 0 0 16.151045848897255 -2.2509126310992946 14.099905495179609 21.441551699592132 -1.542806534722824 4.637595734787619 46.258741427561176 -7.39765980931321 16.414129624733764 37.378974308031495 -14.342286542320954 9.666758966734232 0 0 0 0 0 0 0 0 0 0 0 0 0 0 0 0 0 0 0 0 0 0 0 0 0 0 0 0 0 0 0 0 0 0 0 0 0 0 0 0 0 0 0 0 0
-3.4722208738211013 -8.928445727745556 0.4087321744415825 173.9938352290957 0 0 115.23010765370852 -59.56251047284804 -98.01397814324231 9.114468837524365 48.33897424944012 -20.282739332410383 -13.449778814131653 53.55741703399543 35.4833826837022 0 0 0 -178.94752841813175 -76.7844023225717 179.22290422099556 -5.662979449405225 44.262200469442035 -5.776469022356164 1.4513496973362767 23.753032618269156 -14.079866075661188 0 0 0 -28.536146030917457 -3.1243056809769008 4.141325084244752 -0.7639814612424648 2.9092330570262206 0.40679014292221605 0 0 0 -21.075357442125988 -6.274937017926562 -48.4592319894935 -20.476836455358093 -0.9317976576308138 -30.269584826163936 -60.86135681370163 -11.744612910960816 -10.907388929093155 0 0 -7.00032480930298 0 0 0 0 0 0 0 0 0 0 0 0 0 0 0 0 0 0 0 0 0 0 0 0 0 0 0 0 0 0 0 0 0 0 0 0 0 0 0 0 0 0 0 0 0 0.44264753788180405 -11.196849648420667 -0.06046839968665125 -29.27606754886707 -4.8899248582306 17.661255645422298 0 0 0 0 0 0 0 0 0 16.15104420747745 -2.2509126310992946 14.099903837797768 21.44155010964617 -1.5428063212020087 4.637596160431134 46.258741427561176 -7.39765980931321 16.414129624733764 37.14287859179808 -14.650033269560181 9.645931468580795 0 0 0 0 0 0 0 0 0 0 0 0 0 0 0 0 0 0 0 0 0 0 0 0 0 0 0 0 0 0 0 0 0 0 0 0 0 0 0 0 0 0 0 0 0
-3.4722208738211013 -8.928445727745556 0.4087321744415825 173.9938352290957 0 0 115.23011070277819 -59.56251047284804 -98.01397814324231 9.114471553646514 48.338979387066274 -20.282741113384365 -13.449780151344466 53.55742278314944 35.48339003021382 0 0 0 -178.94752841813175 -76.7844023225717 179.22290422099556 -5.662979449405225 44.262200469442035 -5.776469022356164 1.45134960283299 23.753030752688872 -14.079865167966183 0 0 0 -28.536144528576976 -3.1243052534546254 4.141325937056746 -0.7639814612424648 2.9092330570262206 0.40679014292221605 0 0 0 -21.075355839196064 -6.274937876846114 -48.4592319894935 -20.476832060771642 -0.9317952027069457 -30.26958187628208 -60.86135511525035 -11.744613782990745 -10.907391497921479 0 0 -7.00032480930298 0 0 0 0 0 0 0 0 0 0 0 0 0 0 0 0 0 0 0 0 0 0 0 0 0 0 0 0 0 0 0 0 0 0 0 0 0 0 0 0 0 0 0 0 0 0.5532303598684601 -11.127747674960764 -0.0752406629909221 -29.27606754886707 -4.889925286676838 17.66125727843118 0 0 0 0 0 0 0 0 0 16.151045848897255 -2.2509126310992946 14.099905495179609 21.441553289538064 -1.542805680639563 4.637595734787619 46.258731689490475 -7.39765980931321 16.414129624733764 36.906308997406775 -14.958224205824694 9.626369649516546 0 0 0 0 0 0 0 0 0 0 0 0 0 0 0 0 0 0 0 0 0 0 0 0 0 0 0 0 0 0 0 0 0 0 0 0 0 0 0 0 0 0 0 0 0
